# xmcd
#
# Track frame offsets: 
#        150
#        19359
#        41772
#        60981
#        80353
#        99132
#        116717
#        136910
#        154143
#        172319
#
# Disc length: 2490 seconds
#
# Revision: 0
# Processed by: cddbd v1.5.2PL0 Copyright (c) Steve Scherf et al.
# Submitted via: ExactAudioCopy v0.95b4
#
DISCID=7e09b80a
DTITLE=Various Artist - Easy Going - Relaxing Sounds
DYEAR=2007
DGENRE=Blues
TTITLE0=Curumin/Vem Menina
TTITLE1=Airto Moreira/Primeira Estrella
TTITLE2=Aceyalone/Here and Now (Instrumental)
TTITLE3=Wax Tailor/How I Feel
TTITLE4=Tommy Guerrero/Spider and the Monkey
TTITLE5=Ray Barbee/Another Perspective
TTITLE6=Joyo Velarde/People Like Me
TTITLE7=Ray Barbee/A Man's Wisdom Gives Him Patience
TTITLE8=Joyce Cooling/China Basin
TTITLE9=Tommy Guerrero/A 100 Years
EXTD=
EXTT0=
EXTT1=
EXTT2=
EXTT3=
EXTT4=
EXTT5=
EXTT6=
EXTT7=
EXTT8=
EXTT9=
PLAYORDER=
